<?xml version="1.0" encoding="utf-8"?>
<!-- Generator: Adobe Illustrator 16.0.0, SVG Export Plug-In . SVG Version: 6.00 Build 0)  -->
<!DOCTYPE svg PUBLIC "-//W3C//DTD SVG 1.1//EN" "http://www.w3.org/Graphics/SVG/1.1/DTD/svg11.dtd">
<svg version="1.1"
	 id="svg1825" sodipodi:docname="AIGA_Information.svg" inkscape:version="0.41" sodipodi:docbase="/datas/Projs/Cliparts Stocker/tmp/AIGA" sodipodi:version="0.32" xmlns:svg="http://www.w3.org/2000/svg" xmlns:sodipodi="http://inkscape.sourceforge.net/DTD/sodipodi-0.dtd" xmlns:rdf="http://www.w3.org/1999/02/22-rdf-syntax-ns#" xmlns:inkscape="http://www.inkscape.org/namespaces/inkscape" xmlns:dc="http://purl.org/dc/elements/1.1/" xmlns:cc="http://web.resource.org/cc/"
	 xmlns="http://www.w3.org/2000/svg" xmlns:xlink="http://www.w3.org/1999/xlink" x="0px" y="0px" width="439.488px"
	 height="443.879px" viewBox="0 0 439.488 443.879" enable-background="new 0 0 439.488 443.879" xml:space="preserve">
<sodipodi:namedview  id="base" inkscape:window-height="543" inkscape:current-layer="svg1825" inkscape:window-y="26" inkscape:window-width="640" inkscape:pageshadow="2" inkscape:pageopacity="0.0" inkscape:window-x="0" bordercolor="#666666" inkscape:cx="305.25953" inkscape:zoom="0.43415836" pagecolor="#ffffff" inkscape:cy="417.84947" borderopacity="1.0">
	</sodipodi:namedview>
<g id="g1849">
	<path id="path1851" fill="#CCCCCC" d="M203.043,269.68l30.944-0.064v-24.039c0-6.521,3.037-12.682,11.172-18.018
		c8.133-5.334,30.838-16.156,30.838-44.609c0-28.455-23.842-48.013-43.886-52.162c-20.039-4.15-41.751-1.419-57.159,15.46
		c-13.797,15.116-16.705,27.074-16.705,53.453h30.917v-6.131c0-14.057,1.627-28.896,21.708-32.954
		c10.96-2.214,21.236,1.223,27.331,7.184c6.973,6.816,7.028,22.176-4.082,29.826l-17.426,11.856
		c-10.165,6.521-13.651,13.78-13.651,24.451V269.68L203.043,269.68z"/>
	<g id="g1853">
		<path id="path1855" fill="#CCCCCC" d="M202.841,313.67v-31.862h31.367v31.862H202.841z"/>
		<path id="path1857" fill="#CCCCCC" d="M218.524,297.739"/>
	</g>
</g>
<circle fill="none" stroke="#CCCCCC" stroke-width="85.0394" stroke-miterlimit="10" cx="219.78" cy="219.934" r="173.5"/>
</svg>
